<mxfile host="app.diagrams.net" modified="2024-03-21T22:48:21.769Z" agent="Mozilla/5.0 (Windows NT 10.0; Win64; x64) AppleWebKit/537.36 (KHTML, like Gecko) Chrome/122.0.0.0 Safari/537.36 Edg/122.0.0.0" etag="etZoiPHukO1CGMCzQR0s" version="24.0.7" type="device">
  <diagram name="Página-1" id="SPKoAU8CvDJ4crAKklE5">
    <mxGraphModel dx="1106" dy="623" grid="1" gridSize="10" guides="1" tooltips="1" connect="1" arrows="1" fold="1" page="1" pageScale="1" pageWidth="827" pageHeight="1169" math="0" shadow="0">
      <root>
        <mxCell id="0" />
        <mxCell id="1" parent="0" />
        <mxCell id="YIwshWA2rxh4rhd0RB-E-1" value="Eleitor" style="shape=umlActor;verticalLabelPosition=bottom;verticalAlign=top;html=1;outlineConnect=0;" vertex="1" parent="1">
          <mxGeometry x="150" y="90" width="30" height="60" as="geometry" />
        </mxCell>
        <mxCell id="YIwshWA2rxh4rhd0RB-E-2" value="Mesario" style="shape=umlActor;verticalLabelPosition=bottom;verticalAlign=top;html=1;outlineConnect=0;" vertex="1" parent="1">
          <mxGeometry x="150" y="340" width="30" height="60" as="geometry" />
        </mxCell>
        <mxCell id="YIwshWA2rxh4rhd0RB-E-3" value="Impressora" style="shape=umlActor;verticalLabelPosition=bottom;verticalAlign=top;html=1;outlineConnect=0;" vertex="1" parent="1">
          <mxGeometry x="150" y="620" width="30" height="60" as="geometry" />
        </mxCell>
        <mxCell id="YIwshWA2rxh4rhd0RB-E-20" style="edgeStyle=orthogonalEdgeStyle;rounded=0;orthogonalLoop=1;jettySize=auto;html=1;" edge="1" parent="1" source="YIwshWA2rxh4rhd0RB-E-5" target="YIwshWA2rxh4rhd0RB-E-1">
          <mxGeometry relative="1" as="geometry" />
        </mxCell>
        <mxCell id="YIwshWA2rxh4rhd0RB-E-5" value="Votar em branco" style="ellipse;whiteSpace=wrap;html=1;" vertex="1" parent="1">
          <mxGeometry x="320" y="40" width="127.5" height="85" as="geometry" />
        </mxCell>
        <mxCell id="YIwshWA2rxh4rhd0RB-E-21" style="edgeStyle=orthogonalEdgeStyle;rounded=0;orthogonalLoop=1;jettySize=auto;html=1;" edge="1" parent="1" source="YIwshWA2rxh4rhd0RB-E-11" target="YIwshWA2rxh4rhd0RB-E-1">
          <mxGeometry relative="1" as="geometry" />
        </mxCell>
        <mxCell id="YIwshWA2rxh4rhd0RB-E-11" value="Votar" style="ellipse;whiteSpace=wrap;html=1;" vertex="1" parent="1">
          <mxGeometry x="320" y="170" width="127.5" height="85" as="geometry" />
        </mxCell>
        <mxCell id="YIwshWA2rxh4rhd0RB-E-22" style="edgeStyle=orthogonalEdgeStyle;rounded=0;orthogonalLoop=1;jettySize=auto;html=1;" edge="1" parent="1" source="YIwshWA2rxh4rhd0RB-E-12" target="YIwshWA2rxh4rhd0RB-E-2">
          <mxGeometry relative="1" as="geometry" />
        </mxCell>
        <mxCell id="YIwshWA2rxh4rhd0RB-E-12" value="Validar titulo" style="ellipse;whiteSpace=wrap;html=1;" vertex="1" parent="1">
          <mxGeometry x="330" y="310" width="127.5" height="85" as="geometry" />
        </mxCell>
        <mxCell id="YIwshWA2rxh4rhd0RB-E-23" style="edgeStyle=orthogonalEdgeStyle;rounded=0;orthogonalLoop=1;jettySize=auto;html=1;" edge="1" parent="1" source="YIwshWA2rxh4rhd0RB-E-13">
          <mxGeometry relative="1" as="geometry">
            <mxPoint x="160" y="430" as="targetPoint" />
          </mxGeometry>
        </mxCell>
        <mxCell id="YIwshWA2rxh4rhd0RB-E-13" value="Validar voto" style="ellipse;whiteSpace=wrap;html=1;" vertex="1" parent="1">
          <mxGeometry x="330" y="450" width="127.5" height="85" as="geometry" />
        </mxCell>
        <mxCell id="YIwshWA2rxh4rhd0RB-E-30" style="edgeStyle=orthogonalEdgeStyle;rounded=0;orthogonalLoop=1;jettySize=auto;html=1;exitX=0;exitY=0.5;exitDx=0;exitDy=0;" edge="1" parent="1" source="YIwshWA2rxh4rhd0RB-E-14" target="YIwshWA2rxh4rhd0RB-E-3">
          <mxGeometry relative="1" as="geometry" />
        </mxCell>
        <mxCell id="YIwshWA2rxh4rhd0RB-E-14" value="&#xa;&lt;br style=&quot;color: rgb(0, 0, 0); font-family: Helvetica; font-size: 12px; font-style: normal; font-variant-ligatures: normal; font-variant-caps: normal; font-weight: 400; letter-spacing: normal; orphans: 2; text-align: center; text-indent: 0px; text-transform: none; widows: 2; word-spacing: 0px; -webkit-text-stroke-width: 0px; white-space: normal; background-color: rgb(251, 251, 251); text-decoration-thickness: initial; text-decoration-style: initial; text-decoration-color: initial;&quot;&gt;&lt;span style=&quot;color: rgb(0, 0, 0); font-family: Helvetica; font-size: 12px; font-style: normal; font-variant-ligatures: normal; font-variant-caps: normal; font-weight: 400; letter-spacing: normal; orphans: 2; text-align: center; text-indent: 0px; text-transform: none; widows: 2; word-spacing: 0px; -webkit-text-stroke-width: 0px; white-space: normal; text-decoration-thickness: initial; text-decoration-style: initial; text-decoration-color: initial; background-color: rgb(251, 251, 251); float: none; display: inline !important;&quot;&gt;Finalizar sessão&lt;/span&gt;&lt;br style=&quot;color: rgb(0, 0, 0); font-family: Helvetica; font-size: 12px; font-style: normal; font-variant-ligatures: normal; font-variant-caps: normal; font-weight: 400; letter-spacing: normal; orphans: 2; text-align: center; text-indent: 0px; text-transform: none; widows: 2; word-spacing: 0px; -webkit-text-stroke-width: 0px; white-space: normal; background-color: rgb(251, 251, 251); text-decoration-thickness: initial; text-decoration-style: initial; text-decoration-color: initial;&quot;&gt;&#xa;&#xa;" style="ellipse;whiteSpace=wrap;html=1;" vertex="1" parent="1">
          <mxGeometry x="330" y="610" width="127.5" height="85" as="geometry" />
        </mxCell>
        <mxCell id="YIwshWA2rxh4rhd0RB-E-32" style="edgeStyle=orthogonalEdgeStyle;rounded=0;orthogonalLoop=1;jettySize=auto;html=1;exitX=0;exitY=0.5;exitDx=0;exitDy=0;" edge="1" parent="1" source="YIwshWA2rxh4rhd0RB-E-16" target="YIwshWA2rxh4rhd0RB-E-3">
          <mxGeometry relative="1" as="geometry" />
        </mxCell>
        <mxCell id="YIwshWA2rxh4rhd0RB-E-39" style="edgeStyle=orthogonalEdgeStyle;rounded=0;orthogonalLoop=1;jettySize=auto;html=1;" edge="1" parent="1" source="YIwshWA2rxh4rhd0RB-E-16" target="YIwshWA2rxh4rhd0RB-E-38">
          <mxGeometry relative="1" as="geometry" />
        </mxCell>
        <mxCell id="YIwshWA2rxh4rhd0RB-E-16" value="Enviar relatorio" style="ellipse;whiteSpace=wrap;html=1;" vertex="1" parent="1">
          <mxGeometry x="330" y="750" width="127.5" height="85" as="geometry" />
        </mxCell>
        <mxCell id="YIwshWA2rxh4rhd0RB-E-38" value="TSE" style="shape=umlActor;verticalLabelPosition=bottom;verticalAlign=top;html=1;outlineConnect=0;" vertex="1" parent="1">
          <mxGeometry x="660" y="590" width="30" height="60" as="geometry" />
        </mxCell>
        <mxCell id="YIwshWA2rxh4rhd0RB-E-40" value="" style="shape=xor;whiteSpace=wrap;html=1;rotation=-90;" vertex="1" parent="1">
          <mxGeometry x="155" y="320" width="20" height="26.67" as="geometry" />
        </mxCell>
      </root>
    </mxGraphModel>
  </diagram>
</mxfile>
